<svg width="2228.6000000000004" height="729.3000000000001" xmlns="http://www.w3.org/2000/svg" xmlns:xlink="http://www.w3.org/1999/xlink"><line x1="620.3125" y1="8.0" x2="102.75" y2="33.0" style="stroke:black; stroke-width:1px;" />
<line x1="102.75" y1="41.0" x2="27.5" y2="66.0" style="stroke:black; stroke-width:1px;" />
<line x1="27.5" y1="74.0" x2="27.5" y2="99.0" style="stroke:black; stroke-width:1px;" />
<line x1="102.75" y1="41.0" x2="70.5" y2="66.0" style="stroke:black; stroke-width:1px;" />
<line x1="102.75" y1="41.0" x2="92.5" y2="66.0" style="stroke:black; stroke-width:1px;" />
<line x1="102.75" y1="41.0" x2="136.5" y2="66.0" style="stroke:black; stroke-width:1px;" />
<line x1="136.5" y1="74.0" x2="136.5" y2="99.0" style="stroke:black; stroke-width:1px;" />
<line x1="102.75" y1="41.0" x2="178.0" y2="66.0" style="stroke:black; stroke-width:1px;" />
<line x1="620.3125" y1="8.0" x2="291.75" y2="33.0" style="stroke:black; stroke-width:1px;" />
<line x1="291.75" y1="41.0" x2="216.5" y2="66.0" style="stroke:black; stroke-width:1px;" />
<line x1="216.5" y1="74.0" x2="216.5" y2="99.0" style="stroke:black; stroke-width:1px;" />
<line x1="291.75" y1="41.0" x2="259.5" y2="66.0" style="stroke:black; stroke-width:1px;" />
<line x1="291.75" y1="41.0" x2="281.5" y2="66.0" style="stroke:black; stroke-width:1px;" />
<line x1="291.75" y1="41.0" x2="325.5" y2="66.0" style="stroke:black; stroke-width:1px;" />
<line x1="325.5" y1="74.0" x2="325.5" y2="99.0" style="stroke:black; stroke-width:1px;" />
<line x1="291.75" y1="41.0" x2="367.0" y2="66.0" style="stroke:black; stroke-width:1px;" />
<line x1="620.3125" y1="8.0" x2="665.5" y2="33.0" style="stroke:black; stroke-width:1px;" />
<line x1="665.5" y1="41.0" x2="388.5" y2="66.0" style="stroke:black; stroke-width:1px;" />
<line x1="665.5" y1="41.0" x2="424.5" y2="66.0" style="stroke:black; stroke-width:1px;" />
<line x1="665.5" y1="41.0" x2="453.5" y2="66.0" style="stroke:black; stroke-width:1px;" />
<line x1="665.5" y1="41.0" x2="493.0" y2="66.0" style="stroke:black; stroke-width:1px;" />
<line x1="493.0" y1="74.0" x2="421.0" y2="99.0" style="stroke:black; stroke-width:1px;" />
<line x1="421.0" y1="107.0" x2="421.0" y2="132.0" style="stroke:black; stroke-width:1px;" />
<line x1="493.0" y1="74.0" x2="464.0" y2="99.0" style="stroke:black; stroke-width:1px;" />
<line x1="493.0" y1="74.0" x2="483.5" y2="99.0" style="stroke:black; stroke-width:1px;" />
<line x1="493.0" y1="74.0" x2="522.0" y2="99.0" style="stroke:black; stroke-width:1px;" />
<line x1="522.0" y1="107.0" x2="522.0" y2="132.0" style="stroke:black; stroke-width:1px;" />
<line x1="493.0" y1="74.0" x2="565.0" y2="99.0" style="stroke:black; stroke-width:1px;" />
<line x1="665.5" y1="41.0" x2="544.75" y2="66.0" style="stroke:black; stroke-width:1px;" />
<line x1="665.5" y1="41.0" x2="584.0" y2="66.0" style="stroke:black; stroke-width:1px;" />
<line x1="584.0" y1="74.0" x2="584.0" y2="99.0" style="stroke:black; stroke-width:1px;" />
<line x1="665.5" y1="41.0" x2="635.0" y2="66.0" style="stroke:black; stroke-width:1px;" />
<line x1="635.0" y1="74.0" x2="635.0" y2="99.0" style="stroke:black; stroke-width:1px;" />
<line x1="665.5" y1="41.0" x2="673.5" y2="66.0" style="stroke:black; stroke-width:1px;" />
<line x1="665.5" y1="41.0" x2="712.5" y2="66.0" style="stroke:black; stroke-width:1px;" />
<line x1="712.5" y1="74.0" x2="712.5" y2="99.0" style="stroke:black; stroke-width:1px;" />
<line x1="712.5" y1="107.0" x2="630.0" y2="132.0" style="stroke:black; stroke-width:1px;" />
<line x1="630.0" y1="140.0" x2="630.0" y2="165.0" style="stroke:black; stroke-width:1px;" />
<line x1="712.5" y1="107.0" x2="676.8333333333334" y2="132.0" style="stroke:black; stroke-width:1px;" />
<line x1="712.5" y1="107.0" x2="702.6666666666666" y2="132.0" style="stroke:black; stroke-width:1px;" />
<line x1="712.5" y1="107.0" x2="753.5" y2="132.0" style="stroke:black; stroke-width:1px;" />
<line x1="753.5" y1="140.0" x2="682.5" y2="165.0" style="stroke:black; stroke-width:1px;" />
<line x1="682.5" y1="173.0" x2="682.5" y2="198.0" style="stroke:black; stroke-width:1px;" />
<line x1="753.5" y1="140.0" x2="725.5" y2="165.0" style="stroke:black; stroke-width:1px;" />
<line x1="753.5" y1="140.0" x2="776.0" y2="165.0" style="stroke:black; stroke-width:1px;" />
<line x1="776.0" y1="173.0" x2="734.5" y2="198.0" style="stroke:black; stroke-width:1px;" />
<line x1="734.5" y1="206.0" x2="734.5" y2="231.0" style="stroke:black; stroke-width:1px;" />
<line x1="776.0" y1="173.0" x2="776.0" y2="198.0" style="stroke:black; stroke-width:1px;" />
<line x1="776.0" y1="173.0" x2="817.5" y2="198.0" style="stroke:black; stroke-width:1px;" />
<line x1="817.5" y1="206.0" x2="817.5" y2="231.0" style="stroke:black; stroke-width:1px;" />
<line x1="753.5" y1="140.0" x2="824.5" y2="165.0" style="stroke:black; stroke-width:1px;" />
<line x1="712.5" y1="107.0" x2="795.0" y2="132.0" style="stroke:black; stroke-width:1px;" />
<line x1="665.5" y1="41.0" x2="903.5" y2="66.0" style="stroke:black; stroke-width:1px;" />
<line x1="903.5" y1="74.0" x2="903.5" y2="99.0" style="stroke:black; stroke-width:1px;" />
<line x1="903.5" y1="107.0" x2="857.5" y2="132.0" style="stroke:black; stroke-width:1px;" />
<line x1="903.5" y1="107.0" x2="908.0" y2="132.0" style="stroke:black; stroke-width:1px;" />
<line x1="908.0" y1="140.0" x2="865.5" y2="165.0" style="stroke:black; stroke-width:1px;" />
<line x1="865.5" y1="173.0" x2="865.5" y2="198.0" style="stroke:black; stroke-width:1px;" />
<line x1="908.0" y1="140.0" x2="908.0" y2="165.0" style="stroke:black; stroke-width:1px;" />
<line x1="908.0" y1="140.0" x2="950.5" y2="165.0" style="stroke:black; stroke-width:1px;" />
<line x1="950.5" y1="173.0" x2="950.5" y2="198.0" style="stroke:black; stroke-width:1px;" />
<line x1="903.5" y1="107.0" x2="949.5" y2="132.0" style="stroke:black; stroke-width:1px;" />
<line x1="665.5" y1="41.0" x2="942.5" y2="66.0" style="stroke:black; stroke-width:1px;" />
<line x1="620.3125" y1="8.0" x2="1137.875" y2="33.0" style="stroke:black; stroke-width:1px;" />
<line x1="1137.875" y1="41.0" x2="964.0" y2="66.0" style="stroke:black; stroke-width:1px;" />
<line x1="1137.875" y1="41.0" x2="996.0" y2="66.0" style="stroke:black; stroke-width:1px;" />
<line x1="1137.875" y1="41.0" x2="1021.0" y2="66.0" style="stroke:black; stroke-width:1px;" />
<line x1="1137.875" y1="41.0" x2="1060.5" y2="66.0" style="stroke:black; stroke-width:1px;" />
<line x1="1060.5" y1="74.0" x2="994.25" y2="99.0" style="stroke:black; stroke-width:1px;" />
<line x1="994.25" y1="107.0" x2="994.25" y2="132.0" style="stroke:black; stroke-width:1px;" />
<line x1="1060.5" y1="74.0" x2="1032.25" y2="99.0" style="stroke:black; stroke-width:1px;" />
<line x1="1060.5" y1="74.0" x2="1046.75" y2="99.0" style="stroke:black; stroke-width:1px;" />
<line x1="1060.5" y1="74.0" x2="1085.25" y2="99.0" style="stroke:black; stroke-width:1px;" />
<line x1="1085.25" y1="107.0" x2="1085.25" y2="132.0" style="stroke:black; stroke-width:1px;" />
<line x1="1060.5" y1="74.0" x2="1126.75" y2="99.0" style="stroke:black; stroke-width:1px;" />
<line x1="1137.875" y1="41.0" x2="1108.625" y2="66.0" style="stroke:black; stroke-width:1px;" />
<line x1="1137.875" y1="41.0" x2="1144.25" y2="66.0" style="stroke:black; stroke-width:1px;" />
<line x1="1144.25" y1="74.0" x2="1144.25" y2="99.0" style="stroke:black; stroke-width:1px;" />
<line x1="1137.875" y1="41.0" x2="1195.25" y2="66.0" style="stroke:black; stroke-width:1px;" />
<line x1="1195.25" y1="74.0" x2="1195.25" y2="99.0" style="stroke:black; stroke-width:1px;" />
<line x1="1137.875" y1="41.0" x2="1233.75" y2="66.0" style="stroke:black; stroke-width:1px;" />
<line x1="1137.875" y1="41.0" x2="1272.75" y2="66.0" style="stroke:black; stroke-width:1px;" />
<line x1="1272.75" y1="74.0" x2="1272.75" y2="99.0" style="stroke:black; stroke-width:1px;" />
<line x1="1272.75" y1="107.0" x2="1226.75" y2="132.0" style="stroke:black; stroke-width:1px;" />
<line x1="1272.75" y1="107.0" x2="1277.25" y2="132.0" style="stroke:black; stroke-width:1px;" />
<line x1="1277.25" y1="140.0" x2="1234.75" y2="165.0" style="stroke:black; stroke-width:1px;" />
<line x1="1234.75" y1="173.0" x2="1234.75" y2="198.0" style="stroke:black; stroke-width:1px;" />
<line x1="1277.25" y1="140.0" x2="1277.25" y2="165.0" style="stroke:black; stroke-width:1px;" />
<line x1="1277.25" y1="140.0" x2="1319.75" y2="165.0" style="stroke:black; stroke-width:1px;" />
<line x1="1319.75" y1="173.0" x2="1319.75" y2="198.0" style="stroke:black; stroke-width:1px;" />
<line x1="1272.75" y1="107.0" x2="1318.75" y2="132.0" style="stroke:black; stroke-width:1px;" />
<line x1="1137.875" y1="41.0" x2="1311.75" y2="66.0" style="stroke:black; stroke-width:1px;" />
<rect x="1246.75" y="132.0" width="61.0" height="16.0" style="fill:orange; stroke:rgb(0,0,0);" rx="1"/>
<text x="1248" y="141" style="font-family:sans-serif;font-size:10px;">
expression
</text>
<rect x="835.0" y="165.0" width="61.0" height="16.0" style="fill:orange; stroke:rgb(0,0,0);" rx="1"/>
<text x="837" y="174" style="font-family:sans-serif;font-size:10px;">
expression
</text>
<rect x="393.5" y="99.0" width="55.0" height="16.0" style="fill:orange; stroke:rgb(0,0,0);" rx="1"/>
<text x="395" y="108" style="font-family:sans-serif;font-size:10px;">
data_type
</text>
<rect x="902.5" y="165.0" width="11.0" height="16.0" style="fill:orange; stroke:rgb(0,0,0);" rx="1"/>
<text x="904" y="174" style="font-family:sans-serif;font-size:10px;">
+
</text>
<rect x="820.5" y="165.0" width="8.0" height="16.0" style="fill:orange; stroke:rgb(0,0,0);" rx="1"/>
<text x="822" y="174" style="font-family:sans-serif;font-size:10px;">
(
</text>
<rect x="875.0" y="66.0" width="57.0" height="16.0" style="fill:orange; stroke:rgb(0,0,0);" rx="1"/>
<text x="877" y="75" style="font-family:sans-serif;font-size:10px;">
statement
</text>
<rect x="405.5" y="132.0" width="31.0" height="16.0" style="fill:orange; stroke:rgb(0,0,0);" rx="1"/>
<text x="407" y="141" style="font-family:sans-serif;font-size:10px;">
صحيح
</text>
<rect x="61.5" y="66.0" width="18.0" height="16.0" style="fill:orange; stroke:rgb(0,0,0);" rx="1"/>
<text x="63" y="75" style="font-family:sans-serif;font-size:10px;">
س
</text>
<rect x="737.5" y="165.0" width="77.0" height="16.0" style="fill:orange; stroke:rgb(0,0,0);" rx="1"/>
<text x="739" y="174" style="font-family:sans-serif;font-size:10px;">
argument_list
</text>
<rect x="106.0" y="66.0" width="61.0" height="16.0" style="fill:orange; stroke:rgb(0,0,0);" rx="1"/>
<text x="108" y="75" style="font-family:sans-serif;font-size:10px;">
expression
</text>
<rect x="455.0" y="99.0" width="18.0" height="16.0" style="fill:orange; stroke:rgb(0,0,0);" rx="1"/>
<text x="457" y="108" style="font-family:sans-serif;font-size:10px;">
س
</text>
<rect x="201.0" y="99.0" width="31.0" height="16.0" style="fill:orange; stroke:rgb(0,0,0);" rx="1"/>
<text x="203" y="108" style="font-family:sans-serif;font-size:10px;">
صحيح
</text>
<rect x="652.0" y="165.0" width="61.0" height="16.0" style="fill:orange; stroke:rgb(0,0,0);" rx="1"/>
<text x="654" y="174" style="font-family:sans-serif;font-size:10px;">
expression
</text>
<rect x="671.3333333333334" y="132.0" width="11.0" height="16.0" style="fill:orange; stroke:rgb(0,0,0);" rx="1"/>
<text x="673" y="141" style="font-family:sans-serif;font-size:10px;">
غ
</text>
<rect x="723.0" y="132.0" width="61.0" height="16.0" style="fill:orange; stroke:rgb(0,0,0);" rx="1"/>
<text x="725" y="141" style="font-family:sans-serif;font-size:10px;">
expression
</text>
<rect x="684.0" y="66.0" width="57.0" height="16.0" style="fill:orange; stroke:rgb(0,0,0);" rx="1"/>
<text x="686" y="75" style="font-family:sans-serif;font-size:10px;">
statement
</text>
<rect x="945.5" y="132.0" width="8.0" height="16.0" style="fill:orange; stroke:rgb(0,0,0);" rx="1"/>
<text x="947" y="141" style="font-family:sans-serif;font-size:10px;">
؛
</text>
<rect x="1028.75" y="99.0" width="7.0" height="16.0" style="fill:orange; stroke:rgb(0,0,0);" rx="1"/>
<text x="1030" y="108" style="font-family:sans-serif;font-size:10px;">
ا
</text>
<rect x="1069.75" y="132.0" width="31.0" height="16.0" style="fill:orange; stroke:rgb(0,0,0);" rx="1"/>
<text x="1071" y="141" style="font-family:sans-serif;font-size:10px;">
صحيح
</text>
<rect x="667.5" y="198.0" width="30.0" height="16.0" style="fill:orange; stroke:rgb(0,0,0);" rx="1"/>
<text x="669" y="207" style="font-family:sans-serif;font-size:10px;">
الجمع
</text>
<rect x="1140.75" y="99.0" width="7.0" height="16.0" style="fill:orange; stroke:rgb(0,0,0);" rx="1"/>
<text x="1142" y="108" style="font-family:sans-serif;font-size:10px;">
:
</text>
<rect x="1226.75" y="99.0" width="92.0" height="16.0" style="fill:orange; stroke:rgb(0,0,0);" rx="1"/>
<text x="1228" y="108" style="font-family:sans-serif;font-size:10px;">
result_statement
</text>
<rect x="725.5" y="231.0" width="18.0" height="16.0" style="fill:orange; stroke:rgb(0,0,0);" rx="1"/>
<text x="727" y="240" style="font-family:sans-serif;font-size:10px;">
س
</text>
<rect x="609.5" y="33.0" width="112.0" height="16.0" style="fill:orange; stroke:rgb(0,0,0);" rx="1"/>
<text x="611" y="42" style="font-family:sans-serif;font-size:10px;">
function_declaration
</text>
<rect x="506.5" y="132.0" width="31.0" height="16.0" style="fill:orange; stroke:rgb(0,0,0);" rx="1"/>
<text x="508" y="141" style="font-family:sans-serif;font-size:10px;">
صحيح
</text>
<rect x="1031.0" y="66.0" width="59.0" height="16.0" style="fill:orange; stroke:rgb(0,0,0);" rx="1"/>
<text x="1033" y="75" style="font-family:sans-serif;font-size:10px;">
param_list
</text>
<rect x="941.5" y="198.0" width="18.0" height="16.0" style="fill:orange; stroke:rgb(0,0,0);" rx="1"/>
<text x="943" y="207" style="font-family:sans-serif;font-size:10px;">
ص
</text>
<rect x="295.0" y="66.0" width="61.0" height="16.0" style="fill:orange; stroke:rgb(0,0,0);" rx="1"/>
<text x="297" y="75" style="font-family:sans-serif;font-size:10px;">
expression
</text>
<rect x="1081.875" y="33.0" width="112.0" height="16.0" style="fill:orange; stroke:rgb(0,0,0);" rx="1"/>
<text x="1083" y="42" style="font-family:sans-serif;font-size:10px;">
function_declaration
</text>
<rect x="981.0" y="66.0" width="30.0" height="16.0" style="fill:orange; stroke:rgb(0,0,0);" rx="1"/>
<text x="983" y="75" style="font-family:sans-serif;font-size:10px;">
الجمع
</text>
<rect x="808.5" y="231.0" width="18.0" height="16.0" style="fill:orange; stroke:rgb(0,0,0);" rx="1"/>
<text x="810" y="240" style="font-family:sans-serif;font-size:10px;">
ص
</text>
<rect x="377.5" y="66.0" width="22.0" height="16.0" style="fill:orange; stroke:rgb(0,0,0);" rx="1"/>
<text x="379" y="75" style="font-family:sans-serif;font-size:10px;">
دالة
</text>
<rect x="843.5" y="132.0" width="28.0" height="16.0" style="fill:orange; stroke:rgb(0,0,0);" rx="1"/>
<text x="845" y="141" style="font-family:sans-serif;font-size:10px;">
الناتج
</text>
<rect x="1119.25" y="99.0" width="15.0" height="16.0" style="fill:orange; stroke:rgb(0,0,0);" rx="1"/>
<text x="1121" y="108" style="font-family:sans-serif;font-size:10px;">
ب
</text>
<rect x="1017.0" y="66.0" width="8.0" height="16.0" style="fill:orange; stroke:rgb(0,0,0);" rx="1"/>
<text x="1019" y="75" style="font-family:sans-serif;font-size:10px;">
)
</text>
<rect x="1244.25" y="66.0" width="57.0" height="16.0" style="fill:orange; stroke:rgb(0,0,0);" rx="1"/>
<text x="1246" y="75" style="font-family:sans-serif;font-size:10px;">
statement
</text>
<rect x="12.0" y="99.0" width="31.0" height="16.0" style="fill:orange; stroke:rgb(0,0,0);" rx="1"/>
<text x="14" y="108" style="font-family:sans-serif;font-size:10px;">
صحيح
</text>
<rect x="274.5" y="66.0" width="14.0" height="16.0" style="fill:orange; stroke:rgb(0,0,0);" rx="1"/>
<text x="276" y="75" style="font-family:sans-serif;font-size:10px;">
:=
</text>
<rect x="1179.75" y="99.0" width="31.0" height="16.0" style="fill:orange; stroke:rgb(0,0,0);" rx="1"/>
<text x="1181" y="108" style="font-family:sans-serif;font-size:10px;">
صحيح
</text>
<rect x="670.5" y="99.0" width="84.0" height="16.0" style="fill:orange; stroke:rgb(0,0,0);" rx="1"/>
<text x="672" y="108" style="font-family:sans-serif;font-size:10px;">
var_declaration
</text>
<rect x="787.0" y="198.0" width="61.0" height="16.0" style="fill:orange; stroke:rgb(0,0,0);" rx="1"/>
<text x="789" y="207" style="font-family:sans-serif;font-size:10px;">
expression
</text>
<rect x="363.0" y="66.0" width="8.0" height="16.0" style="fill:orange; stroke:rgb(0,0,0);" rx="1"/>
<text x="365" y="75" style="font-family:sans-serif;font-size:10px;">
؛
</text>
<rect x="85.5" y="66.0" width="14.0" height="16.0" style="fill:orange; stroke:rgb(0,0,0);" rx="1"/>
<text x="87" y="75" style="font-family:sans-serif;font-size:10px;">
:=
</text>
<rect x="607.5" y="66.0" width="55.0" height="16.0" style="fill:orange; stroke:rgb(0,0,0);" rx="1"/>
<text x="609" y="75" style="font-family:sans-serif;font-size:10px;">
data_type
</text>
<rect x="317.5" y="99.0" width="16.0" height="16.0" style="fill:orange; stroke:rgb(0,0,0);" rx="1"/>
<text x="319" y="108" style="font-family:sans-serif;font-size:10px;">
٣٤
</text>
<rect x="856.5" y="198.0" width="18.0" height="16.0" style="fill:orange; stroke:rgb(0,0,0);" rx="1"/>
<text x="858" y="207" style="font-family:sans-serif;font-size:10px;">
س
</text>
<rect x="1127.75" y="66.0" width="33.0" height="16.0" style="fill:orange; stroke:rgb(0,0,0);" rx="1"/>
<text x="1129" y="75" style="font-family:sans-serif;font-size:10px;">
colon
</text>
<rect x="1042.75" y="99.0" width="8.0" height="16.0" style="fill:orange; stroke:rgb(0,0,0);" rx="1"/>
<text x="1044" y="108" style="font-family:sans-serif;font-size:10px;">
،
</text>
<rect x="494.5" y="99.0" width="55.0" height="16.0" style="fill:orange; stroke:rgb(0,0,0);" rx="1"/>
<text x="496" y="108" style="font-family:sans-serif;font-size:10px;">
data_type
</text>
<rect x="1104.625" y="66.0" width="8.0" height="16.0" style="fill:orange; stroke:rgb(0,0,0);" rx="1"/>
<text x="1106" y="75" style="font-family:sans-serif;font-size:10px;">
(
</text>
<rect x="953.0" y="66.0" width="22.0" height="16.0" style="fill:orange; stroke:rgb(0,0,0);" rx="1"/>
<text x="955" y="75" style="font-family:sans-serif;font-size:10px;">
دالة
</text>
<rect x="174.0" y="66.0" width="8.0" height="16.0" style="fill:orange; stroke:rgb(0,0,0);" rx="1"/>
<text x="176" y="75" style="font-family:sans-serif;font-size:10px;">
؛
</text>
<rect x="1231.25" y="198.0" width="7.0" height="16.0" style="fill:orange; stroke:rgb(0,0,0);" rx="1"/>
<text x="1233" y="207" style="font-family:sans-serif;font-size:10px;">
ا
</text>
<rect x="857.5" y="99.0" width="92.0" height="16.0" style="fill:orange; stroke:rgb(0,0,0);" rx="1"/>
<text x="859" y="108" style="font-family:sans-serif;font-size:10px;">
result_statement
</text>
<rect x="567.5" y="66.0" width="33.0" height="16.0" style="fill:orange; stroke:rgb(0,0,0);" rx="1"/>
<text x="569" y="75" style="font-family:sans-serif;font-size:10px;">
colon
</text>
<rect x="669.5" y="66.0" width="8.0" height="16.0" style="fill:orange; stroke:rgb(0,0,0);" rx="1"/>
<text x="671" y="75" style="font-family:sans-serif;font-size:10px;">
}
</text>
<rect x="695.6666666666666" y="132.0" width="14.0" height="16.0" style="fill:orange; stroke:rgb(0,0,0);" rx="1"/>
<text x="697" y="141" style="font-family:sans-serif;font-size:10px;">
:=
</text>
<rect x="1314.75" y="132.0" width="8.0" height="16.0" style="fill:orange; stroke:rgb(0,0,0);" rx="1"/>
<text x="1316" y="141" style="font-family:sans-serif;font-size:10px;">
؛
</text>
<rect x="580.5" y="99.0" width="7.0" height="16.0" style="fill:orange; stroke:rgb(0,0,0);" rx="1"/>
<text x="582" y="108" style="font-family:sans-serif;font-size:10px;">
:
</text>
<rect x="1271.75" y="165.0" width="11.0" height="16.0" style="fill:orange; stroke:rgb(0,0,0);" rx="1"/>
<text x="1273" y="174" style="font-family:sans-serif;font-size:10px;">
+
</text>
<rect x="1167.75" y="66.0" width="55.0" height="16.0" style="fill:orange; stroke:rgb(0,0,0);" rx="1"/>
<text x="1169" y="75" style="font-family:sans-serif;font-size:10px;">
data_type
</text>
<rect x="1204.25" y="165.0" width="61.0" height="16.0" style="fill:orange; stroke:rgb(0,0,0);" rx="1"/>
<text x="1206" y="174" style="font-family:sans-serif;font-size:10px;">
expression
</text>
<rect x="250.5" y="66.0" width="18.0" height="16.0" style="fill:orange; stroke:rgb(0,0,0);" rx="1"/>
<text x="252" y="75" style="font-family:sans-serif;font-size:10px;">
ص
</text>
<rect x="540.75" y="66.0" width="8.0" height="16.0" style="fill:orange; stroke:rgb(0,0,0);" rx="1"/>
<text x="542" y="75" style="font-family:sans-serif;font-size:10px;">
(
</text>
<rect x="449.5" y="66.0" width="8.0" height="16.0" style="fill:orange; stroke:rgb(0,0,0);" rx="1"/>
<text x="451" y="75" style="font-family:sans-serif;font-size:10px;">
)
</text>
<rect x="405.0" y="66.0" width="39.0" height="16.0" style="fill:orange; stroke:rgb(0,0,0);" rx="1"/>
<text x="407" y="75" style="font-family:sans-serif;font-size:10px;">
المدخل
</text>
<rect x="122.5" y="99.0" width="28.0" height="16.0" style="fill:orange; stroke:rgb(0,0,0);" rx="1"/>
<text x="124" y="108" style="font-family:sans-serif;font-size:10px;">
٠٠٠١
</text>
<rect x="791.0" y="132.0" width="8.0" height="16.0" style="fill:orange; stroke:rgb(0,0,0);" rx="1"/>
<text x="793" y="141" style="font-family:sans-serif;font-size:10px;">
؛
</text>
<rect x="978.75" y="132.0" width="31.0" height="16.0" style="fill:orange; stroke:rgb(0,0,0);" rx="1"/>
<text x="980" y="141" style="font-family:sans-serif;font-size:10px;">
صحيح
</text>
<rect x="1307.75" y="66.0" width="8.0" height="16.0" style="fill:orange; stroke:rgb(0,0,0);" rx="1"/>
<text x="1309" y="75" style="font-family:sans-serif;font-size:10px;">
{
</text>
<rect x="920.0" y="165.0" width="61.0" height="16.0" style="fill:orange; stroke:rgb(0,0,0);" rx="1"/>
<text x="922" y="174" style="font-family:sans-serif;font-size:10px;">
expression
</text>
<rect x="1312.25" y="198.0" width="15.0" height="16.0" style="fill:orange; stroke:rgb(0,0,0);" rx="1"/>
<text x="1314" y="207" style="font-family:sans-serif;font-size:10px;">
ب
</text>
<rect x="556.0" y="99.0" width="18.0" height="16.0" style="fill:orange; stroke:rgb(0,0,0);" rx="1"/>
<text x="558" y="108" style="font-family:sans-serif;font-size:10px;">
ص
</text>
<rect x="721.5" y="165.0" width="8.0" height="16.0" style="fill:orange; stroke:rgb(0,0,0);" rx="1"/>
<text x="723" y="174" style="font-family:sans-serif;font-size:10px;">
)
</text>
<rect x="772.0" y="198.0" width="8.0" height="16.0" style="fill:orange; stroke:rgb(0,0,0);" rx="1"/>
<text x="774" y="207" style="font-family:sans-serif;font-size:10px;">
،
</text>
<rect x="619.5" y="99.0" width="31.0" height="16.0" style="fill:orange; stroke:rgb(0,0,0);" rx="1"/>
<text x="621" y="108" style="font-family:sans-serif;font-size:10px;">
صحيح
</text>
<rect x="231.25" y="33.0" width="121.0" height="16.0" style="fill:orange; stroke:rgb(0,0,0);" rx="1"/>
<text x="233" y="42" style="font-family:sans-serif;font-size:10px;">
global_var_declaratoin
</text>
<rect x="42.25" y="33.0" width="121.0" height="16.0" style="fill:orange; stroke:rgb(0,0,0);" rx="1"/>
<text x="44" y="42" style="font-family:sans-serif;font-size:10px;">
global_var_declaratoin
</text>
<rect x="1229.75" y="66.0" width="8.0" height="16.0" style="fill:orange; stroke:rgb(0,0,0);" rx="1"/>
<text x="1231" y="75" style="font-family:sans-serif;font-size:10px;">
}
</text>
<rect x="479.5" y="99.0" width="8.0" height="16.0" style="fill:orange; stroke:rgb(0,0,0);" rx="1"/>
<text x="481" y="108" style="font-family:sans-serif;font-size:10px;">
،
</text>
<rect x="1212.75" y="132.0" width="28.0" height="16.0" style="fill:orange; stroke:rgb(0,0,0);" rx="1"/>
<text x="1214" y="141" style="font-family:sans-serif;font-size:10px;">
الناتج
</text>
<rect x="877.5" y="132.0" width="61.0" height="16.0" style="fill:orange; stroke:rgb(0,0,0);" rx="1"/>
<text x="879" y="141" style="font-family:sans-serif;font-size:10px;">
expression
</text>
<rect x="1289.25" y="165.0" width="61.0" height="16.0" style="fill:orange; stroke:rgb(0,0,0);" rx="1"/>
<text x="1291" y="174" style="font-family:sans-serif;font-size:10px;">
expression
</text>
<rect x="704.0" y="198.0" width="61.0" height="16.0" style="fill:orange; stroke:rgb(0,0,0);" rx="1"/>
<text x="706" y="207" style="font-family:sans-serif;font-size:10px;">
expression
</text>
<rect x="1057.75" y="99.0" width="55.0" height="16.0" style="fill:orange; stroke:rgb(0,0,0);" rx="1"/>
<text x="1059" y="108" style="font-family:sans-serif;font-size:10px;">
data_type
</text>
<rect x="938.5" y="66.0" width="8.0" height="16.0" style="fill:orange; stroke:rgb(0,0,0);" rx="1"/>
<text x="940" y="75" style="font-family:sans-serif;font-size:10px;">
{
</text>
<rect x="189.0" y="66.0" width="55.0" height="16.0" style="fill:orange; stroke:rgb(0,0,0);" rx="1"/>
<text x="191" y="75" style="font-family:sans-serif;font-size:10px;">
data_type
</text>
<rect x="463.5" y="66.0" width="59.0" height="16.0" style="fill:orange; stroke:rgb(0,0,0);" rx="1"/>
<text x="465" y="75" style="font-family:sans-serif;font-size:10px;">
param_list
</text>
<rect x="614.5" y="165.0" width="31.0" height="16.0" style="fill:orange; stroke:rgb(0,0,0);" rx="1"/>
<text x="616" y="174" style="font-family:sans-serif;font-size:10px;">
صحيح
</text>
<rect x="595.3125" y="0.0" width="50.0" height="16.0" style="fill:orange; stroke:rgb(0,0,0);" rx="1"/>
<text x="597" y="9" style="font-family:sans-serif;font-size:10px;">
program
</text>
<rect x="966.75" y="99.0" width="55.0" height="16.0" style="fill:orange; stroke:rgb(0,0,0);" rx="1"/>
<text x="968" y="108" style="font-family:sans-serif;font-size:10px;">
data_type
</text>
<rect x="0.0" y="66.0" width="55.0" height="16.0" style="fill:orange; stroke:rgb(0,0,0);" rx="1"/>
<text x="2" y="75" style="font-family:sans-serif;font-size:10px;">
data_type
</text>
<rect x="602.5" y="132.0" width="55.0" height="16.0" style="fill:orange; stroke:rgb(0,0,0);" rx="1"/>
<text x="604" y="141" style="font-family:sans-serif;font-size:10px;">
data_type
</text>
</svg>