<svg width="1348.6000000000001" height="745.8000000000001" xmlns="http://www.w3.org/2000/svg" xmlns:xlink="http://www.w3.org/1999/xlink"><line x1="336.375" y1="8.0" x2="102.75" y2="33.0" style="stroke:black; stroke-width:1px;" />
<line x1="102.75" y1="41.0" x2="27.5" y2="66.0" style="stroke:black; stroke-width:1px;" />
<line x1="27.5" y1="74.0" x2="27.5" y2="99.0" style="stroke:black; stroke-width:1px;" />
<line x1="102.75" y1="41.0" x2="70.5" y2="66.0" style="stroke:black; stroke-width:1px;" />
<line x1="102.75" y1="41.0" x2="92.5" y2="66.0" style="stroke:black; stroke-width:1px;" />
<line x1="102.75" y1="41.0" x2="136.5" y2="66.0" style="stroke:black; stroke-width:1px;" />
<line x1="136.5" y1="74.0" x2="136.5" y2="99.0" style="stroke:black; stroke-width:1px;" />
<line x1="102.75" y1="41.0" x2="178.0" y2="66.0" style="stroke:black; stroke-width:1px;" />
<line x1="336.375" y1="8.0" x2="291.75" y2="33.0" style="stroke:black; stroke-width:1px;" />
<line x1="291.75" y1="41.0" x2="216.5" y2="66.0" style="stroke:black; stroke-width:1px;" />
<line x1="216.5" y1="74.0" x2="216.5" y2="99.0" style="stroke:black; stroke-width:1px;" />
<line x1="291.75" y1="41.0" x2="259.5" y2="66.0" style="stroke:black; stroke-width:1px;" />
<line x1="291.75" y1="41.0" x2="281.5" y2="66.0" style="stroke:black; stroke-width:1px;" />
<line x1="291.75" y1="41.0" x2="325.5" y2="66.0" style="stroke:black; stroke-width:1px;" />
<line x1="325.5" y1="74.0" x2="325.5" y2="99.0" style="stroke:black; stroke-width:1px;" />
<line x1="291.75" y1="41.0" x2="367.0" y2="66.0" style="stroke:black; stroke-width:1px;" />
<line x1="336.375" y1="8.0" x2="570.0" y2="33.0" style="stroke:black; stroke-width:1px;" />
<line x1="570.0" y1="41.0" x2="388.5" y2="66.0" style="stroke:black; stroke-width:1px;" />
<line x1="570.0" y1="41.0" x2="424.5" y2="66.0" style="stroke:black; stroke-width:1px;" />
<line x1="570.0" y1="41.0" x2="453.5" y2="66.0" style="stroke:black; stroke-width:1px;" />
<line x1="570.0" y1="41.0" x2="493.0" y2="66.0" style="stroke:black; stroke-width:1px;" />
<line x1="493.0" y1="74.0" x2="421.0" y2="99.0" style="stroke:black; stroke-width:1px;" />
<line x1="421.0" y1="107.0" x2="421.0" y2="132.0" style="stroke:black; stroke-width:1px;" />
<line x1="493.0" y1="74.0" x2="464.0" y2="99.0" style="stroke:black; stroke-width:1px;" />
<line x1="493.0" y1="74.0" x2="483.5" y2="99.0" style="stroke:black; stroke-width:1px;" />
<line x1="493.0" y1="74.0" x2="522.0" y2="99.0" style="stroke:black; stroke-width:1px;" />
<line x1="522.0" y1="107.0" x2="522.0" y2="132.0" style="stroke:black; stroke-width:1px;" />
<line x1="493.0" y1="74.0" x2="565.0" y2="99.0" style="stroke:black; stroke-width:1px;" />
<line x1="570.0" y1="41.0" x2="544.75" y2="66.0" style="stroke:black; stroke-width:1px;" />
<line x1="570.0" y1="41.0" x2="584.0" y2="66.0" style="stroke:black; stroke-width:1px;" />
<line x1="584.0" y1="74.0" x2="584.0" y2="99.0" style="stroke:black; stroke-width:1px;" />
<line x1="570.0" y1="41.0" x2="635.0" y2="66.0" style="stroke:black; stroke-width:1px;" />
<line x1="635.0" y1="74.0" x2="635.0" y2="99.0" style="stroke:black; stroke-width:1px;" />
<line x1="570.0" y1="41.0" x2="673.5" y2="66.0" style="stroke:black; stroke-width:1px;" />
<line x1="570.0" y1="41.0" x2="712.5" y2="66.0" style="stroke:black; stroke-width:1px;" />
<line x1="712.5" y1="74.0" x2="712.5" y2="99.0" style="stroke:black; stroke-width:1px;" />
<line x1="712.5" y1="107.0" x2="666.5" y2="132.0" style="stroke:black; stroke-width:1px;" />
<line x1="712.5" y1="107.0" x2="717.0" y2="132.0" style="stroke:black; stroke-width:1px;" />
<line x1="717.0" y1="140.0" x2="674.5" y2="165.0" style="stroke:black; stroke-width:1px;" />
<line x1="674.5" y1="173.0" x2="674.5" y2="198.0" style="stroke:black; stroke-width:1px;" />
<line x1="717.0" y1="140.0" x2="717.0" y2="165.0" style="stroke:black; stroke-width:1px;" />
<line x1="717.0" y1="140.0" x2="759.5" y2="165.0" style="stroke:black; stroke-width:1px;" />
<line x1="759.5" y1="173.0" x2="759.5" y2="198.0" style="stroke:black; stroke-width:1px;" />
<line x1="712.5" y1="107.0" x2="758.5" y2="132.0" style="stroke:black; stroke-width:1px;" />
<line x1="570.0" y1="41.0" x2="751.5" y2="66.0" style="stroke:black; stroke-width:1px;" />
<rect x="619.5" y="99.0" width="31.0" height="16.0" style="fill:orange; stroke:rgb(0,0,0);" rx="1"/>
<text x="621" y="108" style="font-family:sans-serif;font-size:10px;">
صحيح
</text>
<rect x="644.0" y="165.0" width="61.0" height="16.0" style="fill:orange; stroke:rgb(0,0,0);" rx="1"/>
<text x="646" y="174" style="font-family:sans-serif;font-size:10px;">
expression
</text>
<rect x="556.0" y="99.0" width="18.0" height="16.0" style="fill:orange; stroke:rgb(0,0,0);" rx="1"/>
<text x="558" y="108" style="font-family:sans-serif;font-size:10px;">
ص
</text>
<rect x="311.375" y="0.0" width="50.0" height="16.0" style="fill:orange; stroke:rgb(0,0,0);" rx="1"/>
<text x="313" y="9" style="font-family:sans-serif;font-size:10px;">
program
</text>
<rect x="747.5" y="66.0" width="8.0" height="16.0" style="fill:orange; stroke:rgb(0,0,0);" rx="1"/>
<text x="749" y="75" style="font-family:sans-serif;font-size:10px;">
{
</text>
<rect x="750.5" y="198.0" width="18.0" height="16.0" style="fill:orange; stroke:rgb(0,0,0);" rx="1"/>
<text x="752" y="207" style="font-family:sans-serif;font-size:10px;">
ص
</text>
<rect x="494.5" y="99.0" width="55.0" height="16.0" style="fill:orange; stroke:rgb(0,0,0);" rx="1"/>
<text x="496" y="108" style="font-family:sans-serif;font-size:10px;">
data_type
</text>
<rect x="174.0" y="66.0" width="8.0" height="16.0" style="fill:orange; stroke:rgb(0,0,0);" rx="1"/>
<text x="176" y="75" style="font-family:sans-serif;font-size:10px;">
؛
</text>
<rect x="363.0" y="66.0" width="8.0" height="16.0" style="fill:orange; stroke:rgb(0,0,0);" rx="1"/>
<text x="365" y="75" style="font-family:sans-serif;font-size:10px;">
؛
</text>
<rect x="189.0" y="66.0" width="55.0" height="16.0" style="fill:orange; stroke:rgb(0,0,0);" rx="1"/>
<text x="191" y="75" style="font-family:sans-serif;font-size:10px;">
data_type
</text>
<rect x="463.5" y="66.0" width="59.0" height="16.0" style="fill:orange; stroke:rgb(0,0,0);" rx="1"/>
<text x="465" y="75" style="font-family:sans-serif;font-size:10px;">
param_list
</text>
<rect x="684.0" y="66.0" width="57.0" height="16.0" style="fill:orange; stroke:rgb(0,0,0);" rx="1"/>
<text x="686" y="75" style="font-family:sans-serif;font-size:10px;">
statement
</text>
<rect x="506.5" y="132.0" width="31.0" height="16.0" style="fill:orange; stroke:rgb(0,0,0);" rx="1"/>
<text x="508" y="141" style="font-family:sans-serif;font-size:10px;">
صحيح
</text>
<rect x="317.5" y="99.0" width="16.0" height="16.0" style="fill:orange; stroke:rgb(0,0,0);" rx="1"/>
<text x="319" y="108" style="font-family:sans-serif;font-size:10px;">
٣٤
</text>
<rect x="61.5" y="66.0" width="18.0" height="16.0" style="fill:orange; stroke:rgb(0,0,0);" rx="1"/>
<text x="63" y="75" style="font-family:sans-serif;font-size:10px;">
س
</text>
<rect x="666.5" y="99.0" width="92.0" height="16.0" style="fill:orange; stroke:rgb(0,0,0);" rx="1"/>
<text x="668" y="108" style="font-family:sans-serif;font-size:10px;">
result_statement
</text>
<rect x="711.5" y="165.0" width="11.0" height="16.0" style="fill:orange; stroke:rgb(0,0,0);" rx="1"/>
<text x="713" y="174" style="font-family:sans-serif;font-size:10px;">
+
</text>
<rect x="0.0" y="66.0" width="55.0" height="16.0" style="fill:orange; stroke:rgb(0,0,0);" rx="1"/>
<text x="2" y="75" style="font-family:sans-serif;font-size:10px;">
data_type
</text>
<rect x="479.5" y="99.0" width="8.0" height="16.0" style="fill:orange; stroke:rgb(0,0,0);" rx="1"/>
<text x="481" y="108" style="font-family:sans-serif;font-size:10px;">
،
</text>
<rect x="85.5" y="66.0" width="14.0" height="16.0" style="fill:orange; stroke:rgb(0,0,0);" rx="1"/>
<text x="87" y="75" style="font-family:sans-serif;font-size:10px;">
:=
</text>
<rect x="201.0" y="99.0" width="31.0" height="16.0" style="fill:orange; stroke:rgb(0,0,0);" rx="1"/>
<text x="203" y="108" style="font-family:sans-serif;font-size:10px;">
صحيح
</text>
<rect x="405.5" y="132.0" width="31.0" height="16.0" style="fill:orange; stroke:rgb(0,0,0);" rx="1"/>
<text x="407" y="141" style="font-family:sans-serif;font-size:10px;">
صحيح
</text>
<rect x="607.5" y="66.0" width="55.0" height="16.0" style="fill:orange; stroke:rgb(0,0,0);" rx="1"/>
<text x="609" y="75" style="font-family:sans-serif;font-size:10px;">
data_type
</text>
<rect x="580.5" y="99.0" width="7.0" height="16.0" style="fill:orange; stroke:rgb(0,0,0);" rx="1"/>
<text x="582" y="108" style="font-family:sans-serif;font-size:10px;">
:
</text>
<rect x="652.5" y="132.0" width="28.0" height="16.0" style="fill:orange; stroke:rgb(0,0,0);" rx="1"/>
<text x="654" y="141" style="font-family:sans-serif;font-size:10px;">
الناتج
</text>
<rect x="377.5" y="66.0" width="22.0" height="16.0" style="fill:orange; stroke:rgb(0,0,0);" rx="1"/>
<text x="379" y="75" style="font-family:sans-serif;font-size:10px;">
دالة
</text>
<rect x="449.5" y="66.0" width="8.0" height="16.0" style="fill:orange; stroke:rgb(0,0,0);" rx="1"/>
<text x="451" y="75" style="font-family:sans-serif;font-size:10px;">
)
</text>
<rect x="393.5" y="99.0" width="55.0" height="16.0" style="fill:orange; stroke:rgb(0,0,0);" rx="1"/>
<text x="395" y="108" style="font-family:sans-serif;font-size:10px;">
data_type
</text>
<rect x="274.5" y="66.0" width="14.0" height="16.0" style="fill:orange; stroke:rgb(0,0,0);" rx="1"/>
<text x="276" y="75" style="font-family:sans-serif;font-size:10px;">
:=
</text>
<rect x="540.75" y="66.0" width="8.0" height="16.0" style="fill:orange; stroke:rgb(0,0,0);" rx="1"/>
<text x="542" y="75" style="font-family:sans-serif;font-size:10px;">
(
</text>
<rect x="455.0" y="99.0" width="18.0" height="16.0" style="fill:orange; stroke:rgb(0,0,0);" rx="1"/>
<text x="457" y="108" style="font-family:sans-serif;font-size:10px;">
س
</text>
<rect x="231.25" y="33.0" width="121.0" height="16.0" style="fill:orange; stroke:rgb(0,0,0);" rx="1"/>
<text x="233" y="42" style="font-family:sans-serif;font-size:10px;">
global_var_declaratoin
</text>
<rect x="405.0" y="66.0" width="39.0" height="16.0" style="fill:orange; stroke:rgb(0,0,0);" rx="1"/>
<text x="407" y="75" style="font-family:sans-serif;font-size:10px;">
المدخل
</text>
<rect x="295.0" y="66.0" width="61.0" height="16.0" style="fill:orange; stroke:rgb(0,0,0);" rx="1"/>
<text x="297" y="75" style="font-family:sans-serif;font-size:10px;">
expression
</text>
<rect x="42.25" y="33.0" width="121.0" height="16.0" style="fill:orange; stroke:rgb(0,0,0);" rx="1"/>
<text x="44" y="42" style="font-family:sans-serif;font-size:10px;">
global_var_declaratoin
</text>
<rect x="514.0" y="33.0" width="112.0" height="16.0" style="fill:orange; stroke:rgb(0,0,0);" rx="1"/>
<text x="516" y="42" style="font-family:sans-serif;font-size:10px;">
function_declaration
</text>
<rect x="669.5" y="66.0" width="8.0" height="16.0" style="fill:orange; stroke:rgb(0,0,0);" rx="1"/>
<text x="671" y="75" style="font-family:sans-serif;font-size:10px;">
}
</text>
<rect x="686.5" y="132.0" width="61.0" height="16.0" style="fill:orange; stroke:rgb(0,0,0);" rx="1"/>
<text x="688" y="141" style="font-family:sans-serif;font-size:10px;">
expression
</text>
<rect x="665.5" y="198.0" width="18.0" height="16.0" style="fill:orange; stroke:rgb(0,0,0);" rx="1"/>
<text x="667" y="207" style="font-family:sans-serif;font-size:10px;">
س
</text>
<rect x="729.0" y="165.0" width="61.0" height="16.0" style="fill:orange; stroke:rgb(0,0,0);" rx="1"/>
<text x="731" y="174" style="font-family:sans-serif;font-size:10px;">
expression
</text>
<rect x="12.0" y="99.0" width="31.0" height="16.0" style="fill:orange; stroke:rgb(0,0,0);" rx="1"/>
<text x="14" y="108" style="font-family:sans-serif;font-size:10px;">
صحيح
</text>
<rect x="122.5" y="99.0" width="28.0" height="16.0" style="fill:orange; stroke:rgb(0,0,0);" rx="1"/>
<text x="124" y="108" style="font-family:sans-serif;font-size:10px;">
٠٠٠١
</text>
<rect x="106.0" y="66.0" width="61.0" height="16.0" style="fill:orange; stroke:rgb(0,0,0);" rx="1"/>
<text x="108" y="75" style="font-family:sans-serif;font-size:10px;">
expression
</text>
<rect x="567.5" y="66.0" width="33.0" height="16.0" style="fill:orange; stroke:rgb(0,0,0);" rx="1"/>
<text x="569" y="75" style="font-family:sans-serif;font-size:10px;">
colon
</text>
<rect x="754.5" y="132.0" width="8.0" height="16.0" style="fill:orange; stroke:rgb(0,0,0);" rx="1"/>
<text x="756" y="141" style="font-family:sans-serif;font-size:10px;">
؛
</text>
<rect x="250.5" y="66.0" width="18.0" height="16.0" style="fill:orange; stroke:rgb(0,0,0);" rx="1"/>
<text x="252" y="75" style="font-family:sans-serif;font-size:10px;">
ص
</text>
</svg>